<?xml version="1.0" encoding="UTF-8" standalone="no"?>
<!-- Created with Inkscape (http://www.inkscape.org/) -->

<svg
   xmlns:dc="http://purl.org/dc/elements/1.1/"
   xmlns:cc="http://creativecommons.org/ns#"
   xmlns:rdf="http://www.w3.org/1999/02/22-rdf-syntax-ns#"
   xmlns:svg="http://www.w3.org/2000/svg"
   xmlns="http://www.w3.org/2000/svg"
   xmlns:sodipodi="http://sodipodi.sourceforge.net/DTD/sodipodi-0.dtd"
   xmlns:inkscape="http://www.inkscape.org/namespaces/inkscape"
   width="627.70081"
   height="1200"
   viewBox="0 0 166.07917 317.50001"
   version="1.1"
   id="svg8"
   inkscape:version="0.92.4 (5da689c313, 2019-01-14)"
   sodipodi:docname="drawing2.1.svg"
   inkscape:export-filename="C:\Users\Owner\Desktop\drawing2.1.png"
   inkscape:export-xdpi="333.51999"
   inkscape:export-ydpi="333.51999">
  <defs
     id="defs2">
    <linearGradient
       y2="775.59473"
       y1="775.59473"
       x2="1963.2894"
       x1="570.2373"
       gradientUnits="userSpaceOnUse"
       id="b"
       gradientTransform="matrix(1.0955013,0,0,1.351222,-42.583211,-350.09302)">
      <stop
         id="stop63"
         stop-color="#f02b81"
         offset="0" />
      <stop
         id="stop65"
         stop-color="#f08a5b"
         offset="1" />
    </linearGradient>
    <clipPath
       id="a">
      <path
         inkscape:connector-curvature="0"
         id="path60"
         d="m -82.2,543.8 h 2002.3 v 472.9 H -82.2 Z" />
    </clipPath>
    <linearGradient
       y2="895.38348"
       y1="895.38348"
       x2="2035.2726"
       x1="87.286102"
       gradientUnits="userSpaceOnUse"
       id="c"
       gradientTransform="matrix(1.0955013,0,0,1.351222,-42.583211,-350.09302)">
      <stop
         id="stop68"
         stop-color="#ff4c8e"
         offset="0" />
      <stop
         id="stop70"
         stop-color="#ffab7f"
         offset="1" />
    </linearGradient>
    <clipPath
       id="clipPath71">
      <path
         inkscape:connector-curvature="0"
         id="path69"
         d="m -82.2,543.8 h 2002.3 v 472.9 H -82.2 Z" />
    </clipPath>
  </defs>
  <sodipodi:namedview
     id="base"
     pagecolor="#dee3ff"
     bordercolor="#666666"
     borderopacity="1.0"
     inkscape:pageopacity="1"
     inkscape:pageshadow="2"
     inkscape:zoom="1.1576392"
     inkscape:cx="221.02623"
     inkscape:cy="356.44181"
     inkscape:document-units="px"
     inkscape:current-layer="g890"
     showgrid="false"
     units="px"
     inkscape:window-width="1920"
     inkscape:window-height="986"
     inkscape:window-x="-11"
     inkscape:window-y="-11"
     inkscape:window-maximized="1"
     inkscape:pagecheckerboard="false" />
  <metadata
     id="metadata5">
    <rdf:RDF>
      <cc:Work
         rdf:about="">
        <dc:format>image/svg+xml</dc:format>
        <dc:type
           rdf:resource="http://purl.org/dc/dcmitype/StillImage" />
        <dc:title />
      </cc:Work>
    </rdf:RDF>
  </metadata>
  <g
     inkscape:label="Layer 1"
     inkscape:groupmode="layer"
     id="layer1"
     transform="translate(0,20.500008)">
    <g
       id="g970">
      <g
         transform="matrix(0.16662239,0,0,0.16104985,36.858769,94.156104)"
         id="g1558">
        <g
           transform="translate(0,-1)"
           id="g1496">
          <g
             id="g1494">
            <g
               id="g1492">
              <path
                 inkscape:connector-curvature="0"
                 d="M 477.994,125.391 C 469.364,96.064 451.465,70.322 426.978,52.02 378.836,14.258 333.828,-1.396 281.178,1.295 c -27.764,1.917 -55.351,5.858 -82.542,11.792 -38.5,7.75 -66.458,21.283 -85.492,41.375 -15.093,16.072 -26.743,35.059 -34.234,55.795 -3.164,9.087 -5.741,18.367 -7.717,27.783 l -0.717,3.088 c -1.793,6.635 -4.215,13.084 -7.233,19.258 -1.775,3.958 -3.541,7.921 -5.058,11.95 -1.971,4.515 -2.762,9.457 -2.3,14.362 1.732,7.627 6.151,14.376 12.45,19.012 4.183,3.833 6.933,6.525 6.958,8.975 -0.331,1.276 -0.833,2.501 -1.492,3.642 -10.22,21.542 -22.743,41.913 -37.35,60.758 -6.125,7.479 -12.55,16.204 -11.25,25.087 1.859,6.729 6.305,12.45 12.367,15.913 2.821,1.961 5.797,3.688 8.9,5.163 3.683,1.875 9.85,5.021 10.275,7.267 0.562,2.882 0.236,5.866 -0.934,8.558 -1.267,2.671 -2.583,4.979 -3.717,6.983 -3.133,5.542 -8.383,14.817 -0.467,21.454 1.842,1.629 4.992,4.105 7.875,6.308 -2.135,3.75 -3.093,8.056 -2.75,12.358 0.461,3.339 2.279,6.34 5.025,8.296 1.908,1.354 3.95,2.533 5.975,3.692 5.017,2.859 6.975,4.192 7.65,6.854 0.448,3.475 0.133,7.006 -0.925,10.346 -0.492,2.237 -0.975,4.475 -1.275,6.708 -0.857,7.761 0.122,15.616 2.859,22.929 4.428,16.203 20.758,26.112 37.175,22.558 24.367,-5.876 48.399,-13.063 71.991,-21.529 19.183,11.329 31.3,45.617 34.458,58.475 0.942,3.814 4.363,6.496 8.292,6.5 h 215.75 c 2.705,-10e-4 5.25,-1.284 6.859,-3.459 1.609,-2.175 2.091,-4.984 1.3,-7.57 -2.279,-6.014 -5.524,-11.616 -9.609,-16.583 -2.313,-2.949 -4.37,-6.09 -6.15,-9.388 -3.845,-7.873 -7.068,-16.034 -9.642,-24.408 -4.879,-16.48 -8.245,-33.371 -10.058,-50.462 -3.017,-25.518 0.835,-51.378 11.158,-74.908 6.317,-13.023 14.088,-25.289 23.167,-36.563 5.158,-6.938 10.483,-14.112 15.283,-21.679 13.47,-20.925 20.713,-45.248 20.883,-70.133 0.513,-24.456 -2.492,-48.859 -8.922,-72.461 z m -8.142,72.22 c -0.144,21.733 -6.471,42.976 -18.242,61.246 -4.458,7.025 -9.591,13.942 -14.558,20.634 -9.854,12.308 -18.278,25.697 -25.108,39.908 -11.542,26.321 -15.844,55.247 -12.459,83.788 1.931,18.105 5.51,35.995 10.692,53.45 2.829,9.197 6.367,18.16 10.583,26.808 2.216,4.232 4.807,8.256 7.742,12.025 0.117,0.154 0.233,0.313 0.341,0.471 H 234.436 c -5.683,-20.253 -15.98,-38.914 -30.083,-54.521 2.233,-0.779 4.35,-1.521 6.317,-2.213 6.391,-2.237 11.208,-3.929 13.633,-4.692 36.583,-11.483 54.883,-28.108 54.383,-49.417 -0.11,-4.713 -4.021,-8.444 -8.733,-8.333 -4.712,0.111 -8.444,4.021 -8.333,8.733 0.208,8.792 -6.983,21.608 -42.442,32.738 -2.517,0.796 -7.525,2.542 -14.15,4.867 -6.117,2.142 -13.65,4.779 -21.892,7.596 l -0.05,0.017 c -24.02,8.692 -48.492,16.081 -73.308,22.133 -7.993,1.551 -15.776,-3.511 -17.6,-11.446 -1.847,-4.793 -2.552,-9.95 -2.058,-15.063 0.233,-1.766 0.633,-3.533 1.025,-5.3 1.75,-5.92 2.022,-12.179 0.792,-18.229 -2.445,-7.837 -8.188,-14.217 -15.725,-17.471 -0.608,-0.346 -1.225,-0.696 -1.825,-1.05 0.911,-1.866 2.005,-3.638 3.267,-5.287 1.423,-1.813 2.051,-4.124 1.742,-6.408 -0.309,-2.283 -1.53,-4.345 -3.383,-5.714 -2.05,-1.513 -6.925,-5.167 -10.433,-7.967 0.433,-0.796 0.925,-1.667 1.375,-2.454 1.308,-2.317 2.808,-4.987 4.267,-8.05 2.731,-5.969 3.532,-12.642 2.292,-19.088 -1.992,-10.462 -11.992,-15.558 -19.292,-19.283 -2.474,-1.171 -4.846,-2.545 -7.092,-4.108 -1.773,-1.231 -3.453,-2.592 -5.025,-4.071 0.025,-1.283 1.358,-4.404 7.925,-12.417 15.251,-19.659 28.324,-40.914 38.992,-63.392 2.054,-3.521 3.202,-7.497 3.342,-11.571 -0.868,-8.597 -5.43,-16.391 -12.5,-21.358 -3.45,-3.158 -6.708,-6.142 -7.075,-8.758 0.032,-2.073 0.498,-4.117 1.367,-6 1.4,-3.721 3.042,-7.362 4.667,-11.008 3.48,-7.165 6.252,-14.654 8.275,-22.359 l 0.725,-3.112 c 1.815,-8.714 4.186,-17.302 7.1,-25.713 6.695,-18.568 17.11,-35.574 30.608,-49.975 16.533,-17.45 41.55,-29.35 76.475,-36.379 26.37,-5.762 53.124,-9.6 80.05,-11.483 48.3,-2.429 89.733,12.071 134.409,47.121 21.707,16.012 37.557,38.707 45.117,64.6 5.972,22.007 8.759,44.757 8.27,67.555 z"
                 id="path1482" />
              <path
                 inkscape:connector-curvature="0"
                 d="m 433.444,139.011 h -17.692 c -1.965,-6.677 -4.639,-13.125 -7.975,-19.233 l 12.517,-12.517 c 2.925,-2.924 3.333,-7.524 0.967,-10.917 -8.204,-11.771 -18.429,-21.995 -30.2,-30.2 -3.389,-2.374 -7.995,-1.968 -10.917,0.962 l -12.517,12.517 c -6.111,-3.337 -12.562,-6.011 -19.242,-7.975 V 53.953 c -0.002,-4.133 -2.965,-7.671 -7.033,-8.4 -14.13,-2.492 -28.587,-2.492 -42.717,0 -4.069,0.729 -7.031,4.267 -7.033,8.4 v 17.696 c -6.68,1.964 -13.131,4.638 -19.242,7.975 L 259.843,67.107 c -2.922,-2.93 -7.527,-3.336 -10.917,-0.962 -11.771,8.204 -21.996,18.429 -30.2,30.2 -2.366,3.392 -1.959,7.993 0.967,10.917 l 12.517,12.517 c -3.336,6.108 -6.01,12.556 -7.975,19.233 h -17.691 c -4.134,-0.001 -7.674,2.963 -8.4,7.033 -2.511,14.131 -2.511,28.594 0,42.725 0.726,4.07 4.266,7.034 8.4,7.033 h 17.692 c 1.965,6.677 4.639,13.125 7.975,19.233 l -12.517,12.517 c -2.925,2.924 -3.333,7.524 -0.967,10.917 8.204,11.771 18.429,21.996 30.2,30.2 3.393,2.362 7.99,1.957 10.917,-0.962 l 12.517,-12.517 c 6.111,3.337 12.562,6.011 19.242,7.975 v 17.696 c 0.002,4.133 2.965,7.671 7.033,8.4 14.129,2.506 28.588,2.506 42.717,0 4.069,-0.729 7.031,-4.267 7.033,-8.4 v -17.696 c 6.68,-1.964 13.131,-4.638 19.242,-7.975 l 12.517,12.517 c 2.926,2.92 7.524,3.326 10.917,0.962 11.771,-8.204 21.996,-18.429 30.2,-30.2 2.366,-3.392 1.959,-7.993 -0.967,-10.917 l -12.517,-12.517 c 3.336,-6.109 6.01,-12.556 7.975,-19.233 h 17.692 c 4.134,0.001 7.674,-2.963 8.4,-7.033 2.511,-14.131 2.511,-28.594 0,-42.725 -0.727,-4.07 -4.267,-7.034 -8.401,-7.034 z m -7.391,39.726 h -16.918 c -4.007,-0.001 -7.474,2.787 -8.333,6.7 -2.046,9.358 -5.743,18.276 -10.917,26.338 -2.175,3.374 -1.7,7.81 1.142,10.646 l 11.975,11.975 c -4.744,5.903 -10.115,11.273 -16.017,16.017 L 375.01,238.442 c -2.836,-2.837 -7.265,-3.316 -10.642,-1.15 -8.064,5.18 -16.987,8.879 -26.35,10.925 -3.913,0.861 -6.7,4.327 -6.7,8.333 v 16.917 c -7.528,0.808 -15.122,0.808 -22.65,0 V 256.55 c 0,-4.006 -2.787,-7.473 -6.7,-8.333 -9.363,-2.046 -18.286,-5.745 -26.35,-10.925 -3.374,-2.175 -7.81,-1.695 -10.642,1.15 l -11.975,11.971 c -5.903,-4.744 -11.273,-10.115 -16.017,-16.017 l 11.975,-11.975 c 2.841,-2.836 3.317,-7.271 1.142,-10.646 -5.174,-8.061 -8.871,-16.98 -10.917,-26.338 -0.859,-3.913 -4.327,-6.701 -8.333,-6.7 h -16.916 c -0.811,-7.531 -0.811,-15.127 0,-22.658 v 0 h 16.917 c 4.007,0.001 7.474,-2.787 8.333,-6.7 2.046,-9.358 5.743,-18.276 10.917,-26.338 2.175,-3.374 1.7,-7.809 -1.142,-10.646 L 236.985,100.42 c 4.744,-5.903 10.115,-11.273 16.017,-16.017 l 11.975,11.971 c 2.832,2.844 7.267,3.324 10.642,1.15 8.064,-5.18 16.987,-8.879 26.35,-10.925 3.913,-0.861 6.7,-4.327 6.7,-8.333 V 61.349 c 7.528,-0.808 15.122,-0.808 22.65,0 v 16.917 c 0,4.006 2.787,7.473 6.7,8.333 9.363,2.046 18.286,5.745 26.35,10.925 3.377,2.165 7.805,1.686 10.642,-1.15 l 11.975,-11.971 c 5.903,4.744 11.273,10.115 16.017,16.017 l -11.975,11.975 c -2.841,2.836 -3.317,7.271 -1.142,10.646 5.174,8.061 8.871,16.98 10.917,26.338 0.859,3.913 4.327,6.701 8.333,6.7 h 16.917 c 0.811,7.53 0.811,15.127 0,22.658 z"
                 id="path1484" />
              <path
                 inkscape:connector-curvature="0"
                 d="m 204.794,248.474 h -9.746 c -0.795,-3.055 -2.015,-5.983 -3.625,-8.698 l 6.904,-6.906 c 3.332,-3.332 3.332,-8.734 0,-12.067 -3.332,-3.332 -8.734,-3.332 -12.067,0 l -6.905,6.906 c -2.715,-1.608 -5.642,-2.828 -8.695,-3.624 v -9.745 c 0,-4.713 -3.821,-8.533 -8.533,-8.533 -4.712,0 -8.533,3.821 -8.533,8.533 v 9.745 c -3.054,0.796 -5.981,2.016 -8.695,3.624 l -6.904,-6.906 c -2.155,-2.156 -5.297,-2.997 -8.242,-2.208 -2.945,0.789 -5.244,3.089 -6.033,6.033 -0.789,2.944 0.053,6.086 2.208,8.242 l 6.904,6.906 c -1.61,2.715 -2.83,5.643 -3.625,8.698 h -9.746 c -4.713,0 -8.533,3.82 -8.533,8.533 0,4.713 3.82,8.533 8.533,8.533 h 9.746 c 0.795,3.055 2.015,5.983 3.625,8.698 l -6.904,6.906 c -2.155,2.156 -2.997,5.297 -2.208,8.242 0.789,2.944 3.089,5.244 6.033,6.033 2.944,0.789 6.086,-0.053 8.242,-2.208 l 6.904,-6.906 c 2.715,1.608 5.642,2.828 8.696,3.624 v 9.745 c 0,4.713 3.82,8.533 8.533,8.533 4.713,0 8.533,-3.82 8.533,-8.533 v -9.745 c 3.054,-0.796 5.981,-2.016 8.695,-3.624 l 6.904,6.906 c 3.332,3.332 8.734,3.332 12.067,0 3.332,-3.332 3.332,-8.735 0,-12.067 l -6.904,-6.906 c 1.61,-2.715 2.83,-5.643 3.625,-8.698 h 9.746 c 4.713,0 8.533,-3.82 8.533,-8.533 0,-4.713 -3.82,-8.533 -8.533,-8.533 z m -42.667,25.6 c -9.426,0 -17.067,-7.641 -17.067,-17.067 0,-9.426 7.641,-17.067 17.067,-17.067 9.426,0 17.067,7.641 17.067,17.067 -0.011,9.421 -7.646,17.056 -17.067,17.067 z"
                 id="path1486" />
              <path
                 inkscape:connector-curvature="0"
                 d="m 117.457,163.141 c 0.526,1.712 1.213,3.371 2.051,4.954 l -4.615,4.617 c -2.155,2.156 -2.997,5.297 -2.208,8.242 0.789,2.944 3.089,5.244 6.033,6.033 2.944,0.789 6.086,-0.053 8.242,-2.208 l 4.628,-4.63 c 1.579,0.834 3.232,1.519 4.938,2.046 v 6.547 c 0,4.713 3.82,8.533 8.533,8.533 4.713,0 8.533,-3.82 8.533,-8.533 v -6.547 c 1.706,-0.526 3.359,-1.211 4.938,-2.046 l 4.629,4.631 c 3.332,3.332 8.735,3.332 12.067,0 3.332,-3.332 3.332,-8.735 0,-12.067 l -4.616,-4.618 c 0.839,-1.583 1.526,-3.241 2.052,-4.953 h 6.53 c 4.713,0 8.533,-3.821 8.533,-8.533 0,-4.713 -3.82,-8.533 -8.533,-8.533 h -6.53 c -0.526,-1.712 -1.213,-3.37 -2.052,-4.953 l 4.616,-4.618 c 2.156,-2.156 2.997,-5.297 2.208,-8.242 -0.789,-2.944 -3.089,-5.244 -6.033,-6.033 -2.944,-0.789 -6.086,0.053 -8.242,2.208 l -4.629,4.631 c -1.579,-0.834 -3.232,-1.518 -4.938,-2.044 v -6.549 c 0,-4.713 -3.82,-8.533 -8.533,-8.533 -4.713,0 -8.533,3.82 -8.533,8.533 v 6.55 c -1.706,0.526 -3.359,1.21 -4.938,2.044 l -4.629,-4.632 c -3.332,-3.332 -8.734,-3.332 -12.067,0 -3.332,3.332 -3.332,8.734 0,12.067 l 4.616,4.618 c -0.839,1.583 -1.526,3.241 -2.052,4.953 h -6.53 c -4.713,0 -8.533,3.821 -8.533,8.533 0,4.713 3.821,8.533 8.533,8.533 h 6.531 z m 24.508,-20.08 c 5.224,-1.401 10.739,0.882 13.444,5.566 2.705,4.684 1.927,10.601 -1.898,14.426 -3.416,3.419 -8.557,4.443 -13.023,2.594 -4.466,-1.849 -7.378,-6.207 -7.378,-11.04 -0.001,-5.409 3.631,-10.145 8.855,-11.546 z"
                 id="path1488" />
              <path
                 inkscape:connector-curvature="0"
                 d="m 319.994,111.941 c -30.633,0 -55.467,24.833 -55.467,55.467 0.035,30.619 24.848,55.431 55.467,55.467 30.633,0 55.467,-24.833 55.467,-55.467 0,-30.634 -24.834,-55.467 -55.467,-55.467 z m 0,93.866 c -21.208,0 -38.4,-17.192 -38.4,-38.4 0.023,-21.198 17.202,-38.377 38.4,-38.4 21.208,0 38.4,17.192 38.4,38.4 0,21.208 -17.192,38.4 -38.4,38.4 z"
                 id="path1490" />
            </g>
          </g>
        </g>
        <g
           id="g1498" />
        <g
           id="g1500" />
        <g
           id="g1502" />
        <g
           id="g1504" />
        <g
           id="g1506" />
        <g
           id="g1508" />
        <g
           id="g1510" />
        <g
           id="g1512" />
        <g
           id="g1514" />
        <g
           id="g1516" />
        <g
           id="g1518" />
        <g
           id="g1520" />
        <g
           id="g1522" />
        <g
           id="g1524" />
        <g
           id="g1526" />
      </g>
      <g
         transform="matrix(1.0013375,0,0,1.0108249,0.11348927,0.64952992)"
         id="g890">
        <g
           style="stroke-width:1.21666157"
           transform="matrix(0.64336695,0,0,0.71785749,4.5202598,79.557582)"
           id="g865">
          <g
             style="stroke-width:1.21666157"
             transform="matrix(1,0,0,0.92136445,-77.411758,122.85536)"
             id="g112">
            <path
               clip-path="url(#a)"
               d="m 570.2,870.9 c 129.2,-102.3 299.6,-137 464.1,-145.7 164.6,-8.7 330.3,5.4 494,-13.8 126.6,-14.8 250.8,-49.6 366.6,-102.6 16.8,-7.7 37.2,-15.6 52.8,-5.6 17,10.9 16.7,35.5 14.3,55.6 -8,68.4 -19.7,144 -73.3,187.2 -32.6,26.2 -75.2,35.6 -116.3,43.5 C 1488,943.9 1197,963.4 907.8,947.4 791.7,940.8 672,927.5 570.2,870.9 Z"
               id="path73"
               inkscape:connector-curvature="0"
               style="fill:url(#b);stroke-width:1.21666157"
               transform="matrix(0.22551807,0,0,0.23643997,-30.56082,-45.894864)" />
            <path
               clip-path="url(#a)"
               d="m 1245.5,845.7 c 212.2,-21.9 411.9,-126 625.1,-129.2 37.4,-0.6 77.2,2.8 107.4,25 48.3,35.5 54.7,103.9 56.8,163.8 1.5,42.5 1.2,90 -28.1,120.9 -28.6,30.1 -74.7,33.6 -116.2,34.3 -309.3,5.4 -618.3,-33.3 -927.5,-24.6 -287.6,8.1 -599.8,81.8 -875.7,0.4 C 162,924.8 310.5,835.6 443,813.5 c 132.5,-22.1 268,-7.2 401.2,9.9 133.2,17 267.7,36.1 401.3,22.3 z"
               id="path75"
               inkscape:connector-curvature="0"
               style="fill:url(#c);stroke-width:1.21666157"
               transform="matrix(0.22551807,0,0,0.23643997,-30.56082,-45.894864)" />
          </g>
        </g>
        <flowRoot
           xml:space="preserve"
           id="flowRoot17"
           style="font-style:normal;font-weight:normal;font-size:40px;line-height:1.25;font-family:sans-serif;letter-spacing:0px;word-spacing:0px;fill:#000000;fill-opacity:1;stroke:none"
           transform="matrix(0.26458333,0,0,0.26458333,-140.52,199.64597)"><flowRegion
             id="flowRegion19"><rect
               id="rect21"
               width="942.33289"
               height="306.68414"
               x="373.52554"
               y="46.526867" /></flowRegion><flowPara
             id="flowPara23"
             style="font-style:normal;font-variant:normal;font-weight:normal;font-stretch:normal;font-size:74.66666412px;font-family:Montserrat;-inkscape-font-specification:Montserrat;text-align:center;text-anchor:middle" /></flowRoot>        <g
           style="stroke-width:1.20114028"
           transform="matrix(0.70494298,0,0,0.82113694,275.16602,-107.46634)"
           id="g905">
          <g
             transform="translate(475.8185,-164.44859)"
             id="g906">
            <rect
               style="opacity:0.69669668;fill:#ff8800;fill-opacity:1;stroke:#fef9fa;stroke-width:0.41518649;stroke-opacity:1"
               id="rect897"
               width="155.70293"
               height="30.811741"
               x="-830.8269"
               y="286.25775"
               ry="16.944185"
               rx="16.944185" />
            <text
               xml:space="preserve"
               style="font-style:normal;font-variant:normal;font-weight:normal;font-stretch:normal;font-size:13.82641125px;line-height:1.25;font-family:Montserrat;-inkscape-font-specification:Montserrat;letter-spacing:0px;word-spacing:0px;fill:#ececec;fill-opacity:1;stroke:none;stroke-width:0.41518649"
               x="-742.61023"
               y="331.12305"
               id="text901"
               transform="scale(1.0843726,0.92219225)"><tspan
                 sodipodi:role="line"
                 id="tspan899"
                 x="-742.61023"
                 y="331.12305"
                 style="fill:#ececec;stroke-width:0.41518649">LEARN MORE</tspan></text>
          </g>
        </g>
      </g>
      <flowRoot
         transform="matrix(0.26458334,0,0,0.26458334,0,-20.500008)"
         style="font-style:normal;font-variant:normal;font-weight:normal;font-stretch:normal;font-size:47.99999933px;line-height:1.25;font-family:Montserrat;-inkscape-font-specification:Montserrat;letter-spacing:0px;word-spacing:0px;fill:#000000;fill-opacity:1;stroke:none;text-anchor:middle;text-align:center;"
         id="flowRoot920"
         xml:space="preserve"><flowRegion
           style="text-anchor:middle;text-align:center;font-size:47.99999933px;"
           id="flowRegion922"><rect
             style="text-anchor:middle;text-align:center;font-size:47.99999933px;"
             y="212.65523"
             x="44.440174"
             height="152.64235"
             width="542.94299"
             id="rect924" /></flowRegion><flowPara
           id="flowPara926">Content Marketing on Autopilot</flowPara></flowRoot>    </g>
    <text
       xml:space="preserve"
       style="font-style:normal;font-variant:normal;font-weight:normal;font-stretch:normal;font-size:10.58333302px;line-height:1.25;font-family:Montserrat;-inkscape-font-specification:Montserrat;letter-spacing:0px;word-spacing:0px;fill:#000000;fill-opacity:1;stroke:none;stroke-width:0.26458332"
       x="146.4637"
       y="136.10374"
       id="text20"><tspan
         sodipodi:role="line"
         id="tspan18"
         x="146.4637"
         y="145.83081"
         style="stroke-width:0.26458332" /></text>
    <text
       xml:space="preserve"
       style="font-style:normal;font-variant:normal;font-weight:normal;font-stretch:normal;font-size:13.26762676px;line-height:1.25;font-family:Montserrat;-inkscape-font-specification:Montserrat;letter-spacing:0px;word-spacing:0px;fill:#000000;fill-opacity:1;stroke:none;stroke-width:0.26458332"
       x="4.698565"
       y="44.414062"
       id="text841"
       transform="scale(0.76038677,1.3151202)"><tspan
         sodipodi:role="line"
         x="4.698565"
         y="56.608253"
         style="font-style:normal;font-variant:normal;font-weight:normal;font-stretch:normal;font-family:sans-serif;-inkscape-font-specification:sans-serif;stroke-width:0.26458332"
         id="tspan821" /></text>
    <flowRoot
       xml:space="preserve"
       id="flowRoot972"
       style="font-style:normal;font-variant:normal;font-weight:normal;font-stretch:normal;font-size:75.9997406px;line-height:1.25;font-family:Montserrat;-inkscape-font-specification:Montserrat;letter-spacing:0px;word-spacing:0px;fill:#000000;fill-opacity:1;stroke:none"
       transform="matrix(0.26458334,0,0,0.26458334,11.236842,11.249993)"><flowRegion
         id="flowRegion974"
         style="font-size:75.9997406px"><rect
           id="rect976"
           width="448.26611"
           height="158.43889"
           x="113.99871"
           y="792.30969"
           style="font-size:75.9997406px" /></flowRegion><flowPara
         id="flowPara978">MAJIVU</flowPara></flowRoot>  </g>
</svg>
